# xmcd
#
# Track frame offsets: 
#        150
#        7492
#        26892
#        47947
#        65592
#        83150
#        88465
#        110377
#        118615
#        142437
#        159512
#        162935
#        181730
#        194355
#        206492
#
# Disc length: 3045 seconds
#
# Revision: 1
# Processed by: cddbd v1.5.2PL0 Copyright (c) Steve Scherf et al.
# Submitted via: ExactAudioCopy v0.99pb5
#
DISCID=e00be30f
DTITLE=Badly Drawn Boy - Have You Fed The Fish?
DYEAR=2002
DGENRE=Rock
TTITLE0=Coming Into Land
TTITLE1=Have You Fed The Fish?
TTITLE2=Born Again
TTITLE3=40 Days, 40 Fights
TTITLE4=All Possibilities
TTITLE5=I Was Wrong
TTITLE6=You Were Right
TTITLE7=CentrePeace
TTITLE8=How?
TTITLE9=The Further I Slide
TTITLE10=Imaginary Lines
TTITLE11=Using Our Feet
TTITLE12=Tickets To What You Need
TTITLE13=What Is It Now?
TTITLE14=Bedside Story
EXTD=
EXTT0=
EXTT1=
EXTT2=
EXTT3=
EXTT4=
EXTT5=
EXTT6=
EXTT7=
EXTT8=
EXTT9=
EXTT10=
EXTT11=
EXTT12=
EXTT13=
EXTT14=
PLAYORDER=
